<svg id="Layer_1" data-name="Layer 1" xmlns="http://www.w3.org/2000/svg" viewBox="0 0 360 360"><defs><style>.cls-1{fill:#fbb040;}</style></defs><title>corner</title><path class="cls-1" d="M-22.48,19.47l157.82-1.53c25.52-.25,51.09-.93,76.61-.38A333.77,333.77,0,0,1,250.3,20.2c-2.32-.32.78.13,1,.17l4.65.74c2.79.46,5.57,1,8.36,1.45,6.49,1.15,13,2.3,19.52,3.21a192.84,192.84,0,0,0,44.58.94c14.37-1.31,28.7-3,43.13-1.52L354.68,3c-5.9,22.51-7.93,45.82-9.81,68.94s-3.76,46.47-5.64,69.71-5.07,46.58-4.5,69.78c.3,12.11,2.46,24,4.62,35.9.51,2.78,1,5.56,1.42,8.36.47,3.09-.22-2.16.12.95.14,1.3.27,2.59.37,3.89.5,6.24.54,12.51.45,18.77-.19,13.12-.67,26.17.46,39.27,1.19,13.78,3.38,27.47,5.55,41.12l21.53-21.53A366.09,366.09,0,0,0,292,332.77c-25.1,1-50,4.47-75.09,5.91a296.68,296.68,0,0,1-37.42.06c-11.29-.78-21.2-2.8-34-4.89a226.37,226.37,0,0,0-39.94-3.38c-12.59.18-25.18,1.17-37.78.8a88.61,88.61,0,0,1-17.56-1.82c-6.12-1.2-12.19-2.68-18.36-3.66-15.12-2.43-29.61-2.45-43.42,5.06l25.71,19.76c3.61-24.08,1.66-47.72.7-71.9a213.81,213.81,0,0,1,.92-34.56c-.1.81-.42,2.67.15-1,.19-1.25.39-2.5.6-3.75.48-2.81,1-5.62,1.54-8.42,1.15-5.92,2.41-11.81,3.55-17.73,4.54-23.45,5.66-47,5.83-70.78s.3-47.49.46-71.23L28.39-9c.06-9.16-8.09-17.92-17.5-17.5S-6.54-18.81-6.61-9l-.9,140.63c-.07,11.66-.06,23.33-.52,35-.2,5.15-.49,10.29-.94,15.42a139,139,0,0,1-2,15.35c-4.07,23.28-9.64,45.94-9.52,69.75.06,12.87,1.1,25.71,1.65,38.57.26,6.09.42,12.18.32,18.27-.05,3.2-.18,6.39-.4,9.58-.11,1.59-.28,3.18-.4,4.78a11.42,11.42,0,0,1-.35,3c-1.08,7.2.17,13.68,6.27,18.39A17.7,17.7,0,0,0,6.08,361c4.36-2.37-1.79.2.95-.59,1.26-.36,2.55-.71,3.8-1.1.77-.24,3.29-.32,0-.11,1.07-.07,2.12-.16,3.19-.19a66,66,0,0,1,8.15.39c-.75-.07-3.21-.54.33.06,1.68.28,3.34.58,5,.9,12.1,2.35,24,5,36.35,5.68s24.53-.21,36.79-.54c5.81-.16,11.63-.22,17.44.05q4.31.2,8.59.65c.6.06,4.57.51,1.94.18,1.88.24,3.76.55,5.64.84,12.52,2,24.94,4.44,37.55,5.78a257.24,257.24,0,0,0,36.44,1c24.13-.87,48.1-4.09,72.18-5.68a367.84,367.84,0,0,1,40.34-.6q10.53.46,21,1.57c7.1.75,10.26,1.22,18.12,2.58,13.94,2.41,23.72-7.74,21.53-21.53-1.92-12-3.2-19.63-4.21-30.85a302.77,302.77,0,0,1-.67-34.29,222.64,222.64,0,0,0-1.67-36.06c-.74-5.29-1.72-10.54-2.68-15.79-.45-2.47-.9-4.94-1.3-7.43-.1-.61-.66-4.54-.32-1.87-.2-1.6-.35-3.2-.49-4.81-1.84-22.47,1.49-45.42,3.3-67.81L379,82.74c2.07-25.61,3.14-46.42,9.43-70.4,3.12-11.88-5.64-21-16.87-22.15C346.3-12.37,321.25-5.41,296-7.75c-4.49-.42-8.57-1-14.91-2.13s-12.37-2.24-18.58-3.22a355.74,355.74,0,0,0-40.92-4.06c-25.38-1-50.85-.26-76.24,0l-78.91.77-88.9.86c-9.15.09-17.93,8-17.5,17.5s7.69,17.6,17.5,17.5Z"/><path class="cls-1" d="M13.49,340c-5.3-.68-10.29,1.18-15,3.32a13.23,13.23,0,0,0-4.91,4.51,13.18,13.18,0,0,0-3.13,6c-1,4.37-.92,9.68,1.76,13.48a24.86,24.86,0,0,0,7.72,7.77,19.24,19.24,0,0,0,6.43,2.72A18.54,18.54,0,0,0,19.85,376a13.23,13.23,0,0,0,4.91-4.51,13.18,13.18,0,0,0,3.13-6c1-4.48.8-9.51-1.76-13.48-2.4-3.71-6-7.07-10.46-8a8,8,0,0,1-1.09-.32l4.18,1.76a7.47,7.47,0,0,1-1.31-.75L21,347.46a7.32,7.32,0,0,1-1.07-1.07l2.74,3.54-.22-.31-6.28,23.94.38-.17-4.18,1.76a12.29,12.29,0,0,1,2.84-.78l-4.65.63a12.22,12.22,0,0,1,2.94,0,13.18,13.18,0,0,0,6.74-1.51,13.12,13.12,0,0,0,5.63-3.62,13.12,13.12,0,0,0,3.62-5.63A13.18,13.18,0,0,0,31,357.53c-.2-4.53-1.69-9.22-5.13-12.37l-3.54-2.74A17.42,17.42,0,0,0,13.49,340Z"/></svg>