<svg id="Layer_1" data-name="Layer 1" xmlns="http://www.w3.org/2000/svg" viewBox="0 0 360 360"><defs><style>.cls-1{fill:#231f20;}</style></defs><title>frame</title><path class="cls-1" d="M67.87,51.53A437,437,0,0,1,174.66,39.22c33.8.32,69.93,3,100.78,17.94,13.49,6.55,25.9,15.5,35.58,27,10.3,12.26,16.41,27.22,19.2,42.9,6.16,34.69-3.52,69.37-9,103.46C318.57,247,318,264,313.35,280a74.47,74.47,0,0,1-23.68,35.83c-24.7,21-57.79,26.42-89.27,25.84-17.24-.32-34.44-2.13-51.57-3.95-16.53-1.75-33.06-3.89-49.26-7.68-15.5-3.62-33.16-8.35-46.36-17.61-7.21-5.06-9.55-14.2-12.48-22.06s-5.75-15.84-7.95-24c-9.11-33.73-2.6-67.84,4.51-101.27,3.39-16,6.84-31.93,8.81-48.14,1-8.41,1.44-16.81,1.66-25.27C48,83.6,48.25,75.28,51,67.54c2.56-7.23,7.13-13.46,14.09-16.91,2.88-1.43.35-5.74-2.52-4.32C49.17,52.95,44.37,67.83,43.22,81.77c-.75,9-.49,18.1-1.27,27.13-.82,9.42-2.27,18.78-4,28.08-6.48,34.87-17.29,70-14.38,105.81,1.46,17.92,7,34.82,13.32,51.55,2.55,6.79,4.81,14.33,10.17,19.5s13.29,8.31,20.2,11.2c32.62,13.63,68.73,16.73,103.6,19.86,34,3.06,69.94,3.82,101.33-11.74,12.72-6.31,24.38-15.14,33.09-26.41,10.13-13.11,14.52-28.5,16.78-44.71,2.61-18.68,5.13-37.22,8.55-55.79,3.29-17.89,6.42-36,6.54-54.19.22-32.57-10.16-63.58-36-84.53-26.56-21.5-60.69-28.95-94-31.78a438,438,0,0,0-112.4,5.07c-9.46,1.65-18.85,3.64-28.18,5.9-3.13.76-1.8,5.58,1.33,4.82Z"/><path class="cls-1" d="M91.83,53.07c-13,5.74-18.12,17.11-21.9,30-4.81,16.39-9.6,32.79-14,49.29-8.58,32.1-16,64.92-18.48,98.14-1.94,26,1.65,60.38,29,72.31,13.62,5.93,29.91,6.85,44.51,8.52,17,2,34.18,3.1,51.33,3.64s34.37.46,51.55,0c16.23-.47,32.95-.44,49-2.66,13.38-1.85,22.77-9.14,28.82-21.09,6.59-13,10.37-27.66,15-41.43,10.24-30.16,21.45-61.2,21.09-93.49-.29-25.73-8.35-52.83-27.46-70.92-21.81-20.66-54.09-27.19-82.82-31.25-33.12-4.68-66.65-4.66-100-3.33-8.3.33-16.6.74-24.89,1.18-3.2.17-3.22,5.17,0,5,31.25-1.64,62.6-2.93,93.87-1,29.63,1.85,61.89,5.61,89,18.61,24.4,11.7,39.57,33.19,45,59.46,6,28.87-.52,58.31-9.14,85.94-4.49,14.39-9.49,28.61-14.34,42.88-4.16,12.27-7.49,26.88-16.91,36.38-10.55,10.64-28.17,9.05-42,9.74-15.55.78-31.12,1.28-46.69,1.37-32.14.18-64.38-1.39-96.21-6-13.92-2-28.86-3.76-38.91-14.7S42.7,263.38,42.05,249c-.74-16.45,1.55-33.1,4.15-49.3,2.75-17.15,6.44-34.14,10.65-51s9-33.64,13.82-50.35c4.54-15.61,7.18-33.63,23.67-40.93,2.94-1.3.4-5.61-2.52-4.32Z"/></svg>